<?xml version="1.0" encoding="UTF-8" standalone="no"?>
<!-- Generator: Adobe Illustrator 18.0.0, SVG Export Plug-In . SVG Version: 6.00 Build 0)  -->

<svg
   version="1.1"
   id="Capa_1"
   x="0px"
   y="0px"
   viewBox="0 0 188.57727 188.58437"
   xml:space="preserve"
   sodipodi:docname="back-button-svgrepo-com.svg"
   width="188.57727"
   height="188.58437"
   inkscape:version="1.1 (c68e22c387, 2021-05-23)"
   xmlns:inkscape="http://www.inkscape.org/namespaces/inkscape"
   xmlns:sodipodi="http://sodipodi.sourceforge.net/DTD/sodipodi-0.dtd"
   xmlns="http://www.w3.org/2000/svg"
   xmlns:svg="http://www.w3.org/2000/svg"><defs
   id="defs41">
	
	
</defs><sodipodi:namedview
   id="namedview39"
   pagecolor="#ffffff"
   bordercolor="#666666"
   borderopacity="1.0"
   inkscape:pageshadow="2"
   inkscape:pageopacity="0.0"
   inkscape:pagecheckerboard="0"
   showgrid="false"
   inkscape:zoom="1.4142136"
   inkscape:cx="190.56528"
   inkscape:cy="217.43533"
   inkscape:window-width="1920"
   inkscape:window-height="1001"
   inkscape:window-x="-9"
   inkscape:window-y="-9"
   inkscape:window-maximized="1"
   inkscape:current-layer="Capa_1" />
<path
   d="m 80.442932,141.12019 c 2.929,2.928 7.678,2.927 10.606,0 2.93,-2.93 2.93,-7.678 -10e-4,-10.608 l -28.82,-28.819 83.456998,-0.008 c 4.142,-0.001 7.499,-3.358003 7.499,-7.502003 -0.001,-4.142 -3.358,-7.498 -7.5,-7.498 l -83.459998,0.008 28.827,-28.825 c 2.929,-2.929 2.929,-7.679 0,-10.607 -1.465,-1.464 -3.384,-2.197 -5.304,-2.197 -1.919,0 -3.838,0.733 -5.303,2.196 l -41.629,41.628 c -1.407,1.406 -2.197,3.313 -2.197,5.303 10e-4,1.99 0.791,3.896 2.198,5.305 z"
   id="path4"
   style="fill:#000000;fill-opacity:0" />
<g
   id="g8"
   transform="translate(-14.418068,-15.386813)">
</g>
<g
   id="g10"
   transform="translate(-14.418068,-15.386813)">
</g>
<g
   id="g12"
   transform="translate(-14.418068,-15.386813)">
</g>
<g
   id="g14"
   transform="translate(-14.418068,-15.386813)">
</g>
<g
   id="g16"
   transform="translate(-14.418068,-15.386813)">
</g>
<g
   id="g18"
   transform="translate(-14.418068,-15.386813)">
</g>
<g
   id="g20"
   transform="translate(-14.418068,-15.386813)">
</g>
<g
   id="g22"
   transform="translate(-14.418068,-15.386813)">
</g>
<g
   id="g24"
   transform="translate(-14.418068,-15.386813)">
</g>
<g
   id="g26"
   transform="translate(-14.418068,-15.386813)">
</g>
<g
   id="g28"
   transform="translate(-14.418068,-15.386813)">
</g>
<g
   id="g30"
   transform="translate(-14.418068,-15.386813)">
</g>
<g
   id="g32"
   transform="translate(-14.418068,-15.386813)">
</g>
<g
   id="g34"
   transform="translate(-14.418068,-15.386813)">
</g>
<g
   id="g36"
   transform="translate(-14.418068,-15.386813)">
</g>
<path
   style="fill:#48d8f1;fill-opacity:1;stroke:none;stroke-width:0.539781"
   d="m 85.195802,188.09476 c -11.74453,-1.22765 -21.77928,-4.18457 -32.71456,-9.63993 -9.96411,-4.97085 -16.36302,-9.61064 -24.56204,-17.80965 -8.19902,-8.19903 -12.8388,-14.59794 -17.80966,-24.56205 C 4.252262,124.34219 1.575772,114.77533 0.31527204,101.07436 -1.439548,82.000437 4.210692,60.108955 15.280222,43.093615 c 13.7153,-21.08224 35.77618,-36.1806346 60.11095,-41.1397456 16.29997,-3.321723 32.290118,-2.41073198 48.328748,2.753385 6.69396,2.155323 18.93799,8.3670656 25.11219,12.7401276 6.53244,4.626798 17.5568,15.658688 22.26966,22.284876 4.41494,6.207323 10.59487,18.40314 12.8105,25.280978 3.75478,11.655708 5.36941,24.951951 4.37959,36.065324 -1.21163,13.60378 -3.89957,23.23148 -9.7729,35.00457 -4.96081,9.94398 -9.60069,16.34575 -17.81167,24.57524 -8.15192,8.17031 -14.53347,12.79445 -24.56003,17.79646 -16.47293,8.21796 -33.584,11.45534 -50.951458,9.63993 z m 4.0043,-45.81266 c 3.19998,-1.97769 4.37469,-6.39418 2.62506,-9.86929 -0.47835,-0.95012 -7.33432,-8.2251 -15.23548,-16.16662 l -14.36575,-14.43914 h 42.565648 c 41.73449,0 42.60003,-0.0213 44.32619,-1.08807 4.56339,-2.820343 4.56339,-10.117383 0,-12.937723 -1.72616,-1.06682 -2.5917,-1.08807 -44.32619,-1.08807 H 62.223932 L 76.589682,72.25405 c 7.90116,-7.941525 14.75713,-15.216501 15.23548,-16.166618 3.69748,-7.343922 -5.17105,-14.364382 -11.86906,-9.395734 -3.4217,2.538253 -42.66482,42.273829 -43.61071,44.157979 -1.1034,2.1979 -1.1034,4.60299 0,6.80088 0.94589,1.88415 40.18901,41.619733 43.61071,44.157983 2.6369,1.95607 6.52311,2.15516 9.244,0.47356 z"
   id="path1154" /></svg>
