<?xml version="1.0" encoding="UTF-8" standalone="no"?>
<!-- Generator: Adobe Illustrator 18.0.0, SVG Export Plug-In . SVG Version: 6.00 Build 0)  -->

<svg
   version="1.1"
   id="Capa_1"
   x="0px"
   y="0px"
   viewBox="0 0 188.57727 188.58437"
   xml:space="preserve"
   sodipodi:docname="front-button-svgrepo-com.svg"
   width="188.57727"
   height="188.58437"
   inkscape:version="1.1 (c68e22c387, 2021-05-23)"
   xmlns:inkscape="http://www.inkscape.org/namespaces/inkscape"
   xmlns:sodipodi="http://sodipodi.sourceforge.net/DTD/sodipodi-0.dtd"
   xmlns="http://www.w3.org/2000/svg"
   xmlns:svg="http://www.w3.org/2000/svg"><defs
   id="defs41">
	
	
</defs><sodipodi:namedview
   id="namedview39"
   pagecolor="#ffffff"
   bordercolor="#666666"
   borderopacity="1.0"
   inkscape:pageshadow="2"
   inkscape:pageopacity="0.0"
   inkscape:pagecheckerboard="0"
   showgrid="false"
   inkscape:zoom="2.8284271"
   inkscape:cx="173.77149"
   inkscape:cy="100.23239"
   inkscape:window-width="1920"
   inkscape:window-height="1001"
   inkscape:window-x="-9"
   inkscape:window-y="-9"
   inkscape:window-maximized="1"
   inkscape:current-layer="Capa_1" />
<path
   d="m 80.442932,141.12019 c 2.929,2.928 7.678,2.927 10.606,0 2.93,-2.93 2.93,-7.678 -10e-4,-10.608 l -28.82,-28.819 83.456998,-0.008 c 4.142,-0.001 7.499,-3.358003 7.499,-7.502003 -0.001,-4.142 -3.358,-7.498 -7.5,-7.498 l -83.459998,0.008 28.827,-28.825 c 2.929,-2.929 2.929,-7.679 0,-10.607 -1.465,-1.464 -3.384,-2.197 -5.304,-2.197 -1.919,0 -3.838,0.733 -5.303,2.196 l -41.629,41.628 c -1.407,1.406 -2.197,3.313 -2.197,5.303 10e-4,1.99 0.791,3.896 2.198,5.305 z"
   id="path4"
   style="fill:#000000;fill-opacity:0" />
<g
   id="g8"
   transform="translate(-14.418068,-15.386813)">
</g>
<g
   id="g10"
   transform="translate(-14.418068,-15.386813)">
</g>
<g
   id="g12"
   transform="translate(-14.418068,-15.386813)">
</g>
<g
   id="g14"
   transform="translate(-14.418068,-15.386813)">
</g>
<g
   id="g16"
   transform="translate(-14.418068,-15.386813)">
</g>
<g
   id="g18"
   transform="translate(-14.418068,-15.386813)">
</g>
<g
   id="g20"
   transform="translate(-14.418068,-15.386813)">
</g>
<g
   id="g22"
   transform="translate(-14.418068,-15.386813)">
</g>
<g
   id="g24"
   transform="translate(-14.418068,-15.386813)">
</g>
<g
   id="g26"
   transform="translate(-14.418068,-15.386813)">
</g>
<g
   id="g28"
   transform="translate(-14.418068,-15.386813)">
</g>
<g
   id="g30"
   transform="translate(-14.418068,-15.386813)">
</g>
<g
   id="g32"
   transform="translate(-14.418068,-15.386813)">
</g>
<g
   id="g34"
   transform="translate(-14.418068,-15.386813)">
</g>
<g
   id="g36"
   transform="translate(-14.418068,-15.386813)">
</g>
<path
   style="fill:#48d8f1;fill-opacity:1;stroke:none;stroke-width:0.539781"
   d="m 103.38146,188.09476 c 11.74453,-1.22765 21.77928,-4.18457 32.71456,-9.63993 9.96411,-4.97085 16.36302,-9.61064 24.56204,-17.80965 8.19902,-8.19903 12.8388,-14.59794 17.80966,-24.56205 5.85728,-11.74094 8.53377,-21.3078 9.79427,-35.00877 C 190.01681,82.000437 184.36657,60.108955 173.29704,43.093615 159.58174,22.011375 137.52086,6.9129804 113.18609,1.9538694 96.886123,-1.3678536 80.895975,-0.45686258 64.857345,4.7072544 58.163385,6.8625774 45.919355,13.07432 39.745155,17.447382 33.212715,22.07418 22.188355,33.10607 17.475495,39.732258 13.060555,45.939581 6.8806251,58.135398 4.6649951,65.013236 0.91021513,76.668944 -0.70441487,89.965187 0.28540513,101.07856 c 1.21162997,13.60378 3.89956997,23.23148 9.77289987,35.00457 4.96081,9.94398 9.60069,16.34575 17.81167,24.57524 8.15192,8.17031 14.53347,12.79445 24.56003,17.79646 16.47293,8.21796 33.584,11.45534 50.951455,9.63993 z M 99.377163,142.2821 c -3.19998,-1.97769 -4.37469,-6.39418 -2.62506,-9.86929 0.47835,-0.95012 7.334317,-8.2251 15.235477,-16.16662 l 14.36575,-14.43914 H 83.787685 c -41.73449,0 -42.60003,-0.0213 -44.32619,-1.08807 -4.56339,-2.820343 -4.56339,-10.117383 0,-12.937723 1.72616,-1.06682 2.5917,-1.08807 44.32619,-1.08807 H 126.35333 L 111.98758,72.25405 C 104.08642,64.312525 97.230453,57.037549 96.752103,56.087432 93.054623,48.74351 101.92315,41.72305 108.62116,46.691698 c 3.4217,2.538253 42.66482,42.273829 43.61071,44.157979 1.1034,2.1979 1.1034,4.60299 0,6.80088 -0.94589,1.88415 -40.18901,41.619733 -43.61071,44.157983 -2.6369,1.95607 -6.52311,2.15516 -9.243997,0.47356 z"
   id="path1154" /></svg>
